<svg width="735" height="418" viewBox="0 0 735 418" fill="none" xmlns="http://www.w3.org/2000/svg">
<path d="M207.511 118.688C194.128 102.06 185.455 81.872 182.468 60.3905C197.347 75.7253 208.51 94.5333 215.032 115.258C215.208 112.972 215.449 110.229 215.646 107.165C218.252 92.224 224.186 78.129 232.97 66.0145C232.954 81.2892 228.862 96.2581 221.15 109.246C230.514 101.747 246.807 89.1505 251.017 76.1879C254.07 67.2842 255.344 57.8235 254.759 48.3876C254.175 38.9517 251.744 29.7403 247.618 21.32C232.683 30.7486 221.034 44.9125 214.374 61.7394C214.002 62.6767 213.651 63.6369 213.344 64.6199C212.155 59.6608 210.278 54.9089 207.774 50.5143C185.626 12.5869 153.128 0.72168 153.128 0.72168C153.128 0.72168 138.677 36.683 159.07 78.4512C167.557 95.8718 192.884 110.115 207.511 118.688Z" fill="#6D805D"/>
<path d="M579.224 78.4502H550.322C543.512 78.4502 536.98 81.2707 532.165 86.2913C527.349 91.3118 524.644 98.1211 524.644 105.221V220.878H412.413V105.61C412.413 98.5158 409.71 91.7124 404.898 86.6961C400.086 81.6799 393.561 78.8617 386.756 78.8617H315.049C300.759 78.8587 286.609 81.7909 273.406 87.4907C260.203 93.1905 248.207 101.546 238.103 112.081C227.998 122.615 219.983 135.122 214.516 148.886C209.049 162.651 206.236 177.403 206.239 192.301C206.239 177.4 203.423 162.645 197.952 148.879C192.481 135.113 184.463 122.606 174.354 112.071C164.245 101.537 152.245 93.1819 139.039 87.4837C125.832 81.7855 111.678 78.8557 97.3853 78.8617H25.6785C22.3073 78.8587 18.9687 79.5484 15.8534 80.8913C12.7381 82.2341 9.90714 84.2039 7.52239 86.688C5.13764 89.1721 3.24583 92.1218 1.9551 95.3685C0.664364 98.6153 -1.23132e-06 102.095 0 105.61V390.58C0 397.68 2.7054 404.489 7.52105 409.51C12.3367 414.531 18.8681 417.351 25.6785 417.351H156.746C161.126 417.351 165.325 415.537 168.422 412.309C171.519 409.081 173.258 404.702 173.258 400.136C173.315 380.971 167.473 362.293 156.593 346.846L105.455 275.06C101.908 270.054 99.7629 264.119 99.259 257.917C98.7552 251.715 99.9122 245.489 102.601 239.932C105.29 234.375 109.406 229.705 114.49 226.442C119.574 223.179 125.426 221.451 131.397 221.45H131.572C136.792 221.449 141.933 222.77 146.555 225.299C151.177 227.827 155.141 231.488 158.106 235.967L182.666 273.048C185.36 277.123 188.962 280.453 193.164 282.754C197.366 285.055 202.041 286.257 206.787 286.257C211.534 286.257 216.209 285.055 220.411 282.754C224.613 280.453 228.215 277.123 230.909 273.048L255.272 236.47C258.158 232.031 262.003 228.36 266.496 225.752C270.99 223.143 276.008 221.67 281.148 221.45C287.198 221.259 293.177 222.846 298.403 226.03C303.628 229.215 307.889 233.868 310.698 239.458C313.507 245.047 314.751 251.348 314.287 257.64C313.823 263.932 311.671 269.961 308.076 275.037L257.026 347.074C246.105 362.466 240.209 381.105 240.207 400.251C240.207 404.816 241.946 409.195 245.043 412.423C248.14 415.652 252.34 417.465 256.719 417.465H386.844C390.215 417.465 393.553 416.773 396.667 415.427C399.781 414.081 402.611 412.109 404.993 409.623C407.376 407.137 409.266 404.185 410.554 400.937C411.842 397.69 412.503 394.209 412.5 390.694V274.557H524.731V390.969C524.731 398.069 527.437 404.878 532.252 409.899C537.068 414.919 543.599 417.74 550.41 417.74H579.312C591.661 417.734 603.502 412.615 612.232 403.509C620.962 394.404 625.866 382.056 625.866 369.182V127.008C625.866 120.626 624.659 114.306 622.315 108.41C619.97 102.514 616.533 97.1582 612.201 92.6483C607.869 88.1384 602.727 84.5631 597.068 82.1268C591.41 79.6906 585.346 78.4412 579.224 78.4502ZM225.778 238.825L217.401 247.626C215.933 249.158 214.189 250.373 212.27 251.202C210.351 252.031 208.294 252.458 206.217 252.458C204.14 252.458 202.083 252.031 200.164 251.202C198.245 250.373 196.502 249.158 195.034 247.626L186.657 238.893C170.539 222.09 190.1 201.697 206.217 218.501C222.379 201.583 241.961 221.976 225.778 238.825Z" fill="#6D805D"/>
<path d="M687.595 126.916C680.784 126.916 674.253 129.736 669.437 134.757C664.621 139.777 661.916 146.586 661.916 153.687V342.501C661.916 349.601 664.621 356.41 669.437 361.431C674.253 366.451 680.784 369.272 687.595 369.272C699.936 369.272 711.773 364.165 720.506 355.074C729.239 345.982 734.154 333.649 734.171 320.782V175.474C734.171 162.595 729.264 150.244 720.529 141.138C711.794 132.031 699.947 126.916 687.595 126.916Z" fill="#6D805D"/>
</svg>
