<svg width="27" height="27" viewBox="0 0 27 27" fill="none" xmlns="http://www.w3.org/2000/svg">
<path opacity="0.4" d="M12.9375 23.625C18.84 23.625 23.625 18.84 23.625 12.9375C23.625 7.03496 18.84 2.25 12.9375 2.25C7.03496 2.25 2.25 7.03496 2.25 12.9375C2.25 18.84 7.03496 23.625 12.9375 23.625Z" fill="#99A285"/>
<path d="M23.9624 24.7509C23.7599 24.7509 23.5574 24.6721 23.4111 24.5259L21.3186 22.4334C21.0149 22.1296 21.0149 21.6346 21.3186 21.3196C21.6224 21.0159 22.1174 21.0159 22.4324 21.3196L24.5249 23.4121C24.8286 23.7159 24.8286 24.2109 24.5249 24.5259C24.3674 24.6721 24.1649 24.7509 23.9624 24.7509Z" fill="#6D805D"/>
<path d="M14.9289 10.0006C14.2202 9.77558 13.4664 9.91058 12.9264 10.3268C12.3752 9.91058 11.6439 9.77558 10.9352 10.0006C9.40516 10.4956 8.92141 12.2393 9.34891 13.5668C10.0014 15.6031 12.1502 16.6606 12.9264 16.6606C13.6802 16.6606 15.8739 15.5806 16.5039 13.5668C16.9427 12.2393 16.4589 10.4956 14.9289 10.0006Z" fill="#6D805D"/>
</svg>
